<?xml version="1.0" encoding="UTF-8"?><svg id="Layer_2" xmlns="http://www.w3.org/2000/svg" viewBox="0 0 118.26 131.29"><defs><style>.cls-1{fill:#0a0a0a;}</style></defs><g id="Layer_1-2"><path class="cls-1" d="M12.46,112.43c-.46-.39-1.14-.6-2.03-.6h-1.92v4.59h1.92c.89,0,1.57-.19,2.03-.58.46-.39.69-.96.69-1.7s-.23-1.32-.69-1.71ZM10.43,111.83h-1.92v4.59h1.92c.89,0,1.57-.19,2.03-.58.46-.39.69-.96.69-1.7s-.23-1.32-.69-1.71c-.46-.39-1.14-.6-2.03-.6ZM40.31,0L0,40.31v79.88c0,6.13,4.97,11.1,11.1,11.1h54.71V0h-25.5ZM32.72,93.87h2.12v2h-2.12v-2ZM14.75,116.37c-.39.64-.93,1.13-1.64,1.47-.7.34-1.51.51-2.43.51h-2.17v4.98h-2.08v-13.4h4.25c.92,0,1.73.17,2.43.52.71.34,1.25.84,1.64,1.47s.59,1.37.59,2.22-.2,1.6-.59,2.23ZM14.82,105.85c-.4.56-.95,1-1.66,1.31-.71.32-1.53.47-2.46.47s-1.82-.19-2.55-.58-1.31-.94-1.73-1.65c-.42-.7-.67-1.51-.75-2.42l2.12-.16c.14.92.46,1.63.96,2.13s1.17.76,1.98.76,1.45-.16,1.88-.48c.44-.33.65-.78.65-1.35,0-.42-.09-.77-.28-1.05-.19-.29-.52-.54-1-.79-.48-.23-1.16-.47-2.04-.69-1.41-.36-2.43-.81-3.05-1.4-.62-.58-.93-1.39-.93-2.41,0-.77.18-1.45.55-2.05.38-.59.91-1.05,1.6-1.37.69-.33,1.5-.49,2.42-.49,1.32,0,2.39.39,3.21,1.18.83.8,1.32,1.85,1.49,3.17l-2.14.1c-.1-.77-.37-1.38-.82-1.84-.45-.45-1.04-.69-1.78-.69s-1.31.18-1.74.52c-.43.35-.64.8-.64,1.37,0,.39.09.71.26.95.18.25.47.46.87.65s.98.37,1.74.57c1.08.28,1.95.6,2.59.98.65.39,1.12.84,1.41,1.39.29.53.43,1.18.43,1.95,0,.72-.19,1.36-.59,1.92ZM26.93,123.33h-9.36v-1.74h3.94v-6.6h-3.75v-1.74h5.79v8.34h3.38v1.74ZM21.4,111.87v-2h2.11v2h-2.11ZM25.27,107.33h-2.19l-1.21-5.54-1.21,5.54h-2.17l-1.98-10.08h2.15l1.1,7.27,1.2-5.84h1.82l1.2,5.84,1.1-7.27h2.15l-1.96,10.08ZM36.36,122.5c-.8.7-1.79,1.06-2.96,1.06-.94,0-1.77-.22-2.48-.66-.71-.42-1.26-1.04-1.64-1.84-.38-.79-.58-1.71-.58-2.77s.2-1.98.58-2.78c.38-.78.93-1.4,1.64-1.84.71-.43,1.54-.65,2.48-.65,1.16,0,2.13.34,2.92,1,.79.67,1.28,1.58,1.48,2.74l-2.11.13c-.15-.64-.42-1.14-.81-1.49-.39-.35-.88-.53-1.48-.53-.8,0-1.43.31-1.88.92-.46.59-.68,1.44-.68,2.5s.22,1.91.68,2.51c.45.6,1.08.91,1.88.91.6,0,1.1-.19,1.5-.56.41-.36.69-.9.83-1.6l2.11.14c-.19,1.17-.68,2.1-1.48,2.81ZM38.26,107.33h-9.37v-1.74h3.95v-6.6h-3.76v-1.74h5.8v8.34h3.38v1.74ZM48.94,95.66h-2.81c-.75,0-1.12.41-1.12,1.21v.38h3.82v1.74h-3.82v8.34h-2.02v-8.34h-2.88v-1.74h2.88v-.4c0-.99.24-1.73.71-2.21.47-.47,1.22-.71,2.24-.71h3v1.73ZM60.15,98.99h-3.98v5.24c0,.9.45,1.36,1.34,1.36h2.64v1.74h-2.89c-1.05,0-1.84-.25-2.35-.74-.51-.49-.76-1.25-.76-2.28v-5.32h-3.1v-1.74h3.1v-2.55h2.02v2.55h3.98v1.74ZM12.46,112.43c-.46-.39-1.14-.6-2.03-.6h-1.92v4.59h1.92c.89,0,1.57-.19,2.03-.58.46-.39.69-.96.69-1.7s-.23-1.32-.69-1.71Z"/><path class="cls-1" d="M101,0h6.15c6.13,0,11.1,4.97,11.1,11.1v109.09c0,6.13-4.97,11.1-11.1,11.1h-6.15V0h0Z"/><rect class="cls-1" x="68.26" y="0" width="29.71" height="131.28"/></g></svg>